<svg aria-roledescription="er" viewBox="0 0 573.0859375 386" style="max-width: 100%;" xmlns="http://www.w3.org/2000/svg" width="100%" id="graph-div" height="100%" xmlns:xlink="http://www.w3.org/1999/xlink"><style>@import url("https://cdnjs.cloudflare.com/ajax/libs/font-awesome/6.2.1/css/all.min.css");'</style><style>#graph-div{font-family:"trebuchet ms",verdana,arial,sans-serif;font-size:16px;fill:#333;}#graph-div .error-icon{fill:#552222;}#graph-div .error-text{fill:#552222;stroke:#552222;}#graph-div .edge-thickness-normal{stroke-width:2px;}#graph-div .edge-thickness-thick{stroke-width:3.5px;}#graph-div .edge-pattern-solid{stroke-dasharray:0;}#graph-div .edge-pattern-dashed{stroke-dasharray:3;}#graph-div .edge-pattern-dotted{stroke-dasharray:2;}#graph-div .marker{fill:#333333;stroke:#333333;}#graph-div .marker.cross{stroke:#333333;}#graph-div svg{font-family:"trebuchet ms",verdana,arial,sans-serif;font-size:16px;}#graph-div .entityBox{fill:#ECECFF;stroke:#9370DB;}#graph-div .attributeBoxOdd{fill:#ffffff;stroke:#9370DB;}#graph-div .attributeBoxEven{fill:#f2f2f2;stroke:#9370DB;}#graph-div .relationshipLabelBox{fill:hsl(80, 100%, 96.2745098039%);opacity:0.7;background-color:hsl(80, 100%, 96.2745098039%);}#graph-div .relationshipLabelBox rect{opacity:0.5;}#graph-div .relationshipLine{stroke:#333333;}#graph-div .entityTitleText{text-anchor:middle;font-size:18px;fill:#333;}#graph-div :root{--mermaid-font-family:"trebuchet ms",verdana,arial,sans-serif;}</style><g></g><defs><marker orient="auto" markerHeight="18" markerWidth="18" refY="9" refX="0" id="ONLY_ONE_START"><path d="M9,0 L9,18 M15,0 L15,18" fill="none" stroke="gray"></path></marker></defs><defs><marker orient="auto" markerHeight="18" markerWidth="18" refY="9" refX="18" id="ONLY_ONE_END"><path d="M3,0 L3,18 M9,0 L9,18" fill="none" stroke="gray"></path></marker></defs><defs><marker orient="auto" markerHeight="18" markerWidth="30" refY="9" refX="0" id="ZERO_OR_ONE_START"><circle r="6" cy="9" cx="21" fill="white" stroke="gray"></circle><path d="M9,0 L9,18" fill="none" stroke="gray"></path></marker></defs><defs><marker orient="auto" markerHeight="18" markerWidth="30" refY="9" refX="30" id="ZERO_OR_ONE_END"><circle r="6" cy="9" cx="9" fill="white" stroke="gray"></circle><path d="M21,0 L21,18" fill="none" stroke="gray"></path></marker></defs><defs><marker orient="auto" markerHeight="36" markerWidth="45" refY="18" refX="18" id="ONE_OR_MORE_START"><path d="M0,18 Q 18,0 36,18 Q 18,36 0,18 M42,9 L42,27" fill="none" stroke="gray"></path></marker></defs><defs><marker orient="auto" markerHeight="36" markerWidth="45" refY="18" refX="27" id="ONE_OR_MORE_END"><path d="M3,9 L3,27 M9,18 Q27,0 45,18 Q27,36 9,18" fill="none" stroke="gray"></path></marker></defs><defs><marker orient="auto" markerHeight="36" markerWidth="57" refY="18" refX="18" id="ZERO_OR_MORE_START"><circle r="6" cy="18" cx="48" fill="white" stroke="gray"></circle><path d="M0,18 Q18,0 36,18 Q18,36 0,18" fill="none" stroke="gray"></path></marker></defs><defs><marker orient="auto" markerHeight="36" markerWidth="57" refY="18" refX="39" id="ZERO_OR_MORE_END"><circle r="6" cy="18" cx="9" fill="white" stroke="gray"></circle><path d="M21,18 Q39,0 57,18 Q39,36 21,18" fill="none" stroke="gray"></path></marker></defs><path style="stroke: gray; fill: none;" marker-start="url(#ONLY_ONE_START)" marker-end="url(#ZERO_OR_MORE_END)" d="M70,121L70,131.16666666666666C70,141.33333333333334,70,161.66666666666666,73.56125356125357,180.16666666666666C77.12250712250712,198.66666666666666,84.24501424501425,215.33333333333334,87.8062678062678,223.66666666666666L91.36752136752136,232" class="er relationshipLine"></path><path style="stroke: gray; fill: none;" marker-start="url(#ONLY_ONE_START)" marker-end="url(#ZERO_OR_MORE_END)" d="M248.77358490566039,121L243.97798742138366,131.16666666666666C239.18238993710693,141.33333333333334,229.59119496855348,161.66666666666666,217.6730903617696,180.16666666666666C205.75498575498577,198.66666666666666,191.5099715099715,215.33333333333334,184.3874643874644,223.66666666666666L177.26495726495727,232" class="er relationshipLine"></path><path style="stroke: gray; fill: none;" marker-start="url(#ONLY_ONE_START)" marker-end="url(#ZERO_OR_MORE_END)" d="M294.7378943101415,121L300.3268259876179,131.16666666666666C305.9157576650943,141.33333333333334,317.0936210200471,161.66666666666666,333.7873203257287,183.83333333333334C350.4810196314102,206,372.6905548878205,230,383.79532251602564,242L394.9000901442308,254" class="er relationshipLine"></path><path style="stroke: gray; fill: none;" marker-start="url(#ONLY_ONE_START)" marker-end="url(#ZERO_OR_MORE_END)" d="M486.54296875,132L486.54296875,140.33333333333334C486.54296875,148.66666666666666,486.54296875,165.33333333333334,481.41476362179486,185.66666666666666C476.2865584935898,206,466.0301482371795,230,460.90194310897436,242L455.7737379807692,254" class="er relationshipLine"></path><g transform="translate(20,31 )" id="entity-User-6887fd05-7081-46a4-8bdf-e161ec9bb8ab"><rect height="90" width="100" y="0" x="0" class="er entityBox"></rect><text transform="translate(50,12)" style="dominant-baseline: middle; text-anchor: middle; font-size: 12px;" y="0" x="0" id="text-entity-User-6887fd05-7081-46a4-8bdf-e161ec9bb8ab" class="er entityLabel">User</text><rect height="22" width="50.21484375" y="24" x="0" class="er attributeBoxOdd"></rect><text transform="translate(5,35)" style="dominant-baseline: middle; font-size: 10.2px;" y="0" x="0" id="text-entity-User-6887fd05-7081-46a4-8bdf-e161ec9bb8ab-attr-1-type" class="er entityLabel">uuid</text><rect height="22" width="49.78515625" y="24" x="50.21484375" class="er attributeBoxOdd"></rect><text transform="translate(55.21484375,35)" style="dominant-baseline: middle; font-size: 10.2px;" y="0" x="0" id="text-entity-User-6887fd05-7081-46a4-8bdf-e161ec9bb8ab-attr-1-name" class="er entityLabel">id</text><rect height="22" width="50.21484375" y="46" x="0" class="er attributeBoxEven"></rect><text transform="translate(5,57)" style="dominant-baseline: middle; font-size: 10.2px;" y="0" x="0" id="text-entity-User-6887fd05-7081-46a4-8bdf-e161ec9bb8ab-attr-2-type" class="er entityLabel">string</text><rect height="22" width="49.78515625" y="46" x="50.21484375" class="er attributeBoxEven"></rect><text transform="translate(55.21484375,57)" style="dominant-baseline: middle; font-size: 10.2px;" y="0" x="0" id="text-entity-User-6887fd05-7081-46a4-8bdf-e161ec9bb8ab-attr-2-name" class="er entityLabel">name</text><rect height="22" width="50.21484375" y="68" x="0" class="er attributeBoxOdd"></rect><text transform="translate(5,79)" style="dominant-baseline: middle; font-size: 10.2px;" y="0" x="0" id="text-entity-User-6887fd05-7081-46a4-8bdf-e161ec9bb8ab-attr-3-type" class="er entityLabel">string</text><rect height="22" width="49.78515625" y="68" x="50.21484375" class="er attributeBoxOdd"></rect><text transform="translate(55.21484375,79)" style="dominant-baseline: middle; font-size: 10.2px;" y="0" x="0" id="text-entity-User-6887fd05-7081-46a4-8bdf-e161ec9bb8ab-attr-3-name" class="er entityLabel">email</text></g><g transform="translate(61.8359375,232 )" id="entity-UserRoleBinding-7df93ccf-e87e-4b93-be54-036d05c157f1"><rect height="134" width="116.328125" y="0" x="0" class="er entityBox"></rect><text transform="translate(58.1640625,12)" style="dominant-baseline: middle; text-anchor: middle; font-size: 12px;" y="0" x="0" id="text-entity-UserRoleBinding-7df93ccf-e87e-4b93-be54-036d05c157f1" class="er entityLabel">UserRoleBinding</text><rect height="22" width="51.39453125" y="24" x="0" class="er attributeBoxOdd"></rect><text transform="translate(5,35)" style="dominant-baseline: middle; font-size: 10.2px;" y="0" x="0" id="text-entity-UserRoleBinding-7df93ccf-e87e-4b93-be54-036d05c157f1-attr-1-type" class="er entityLabel">uuid</text><rect height="22" width="64.93359375" y="24" x="51.39453125" class="er attributeBoxOdd"></rect><text transform="translate(56.39453125,35)" style="dominant-baseline: middle; font-size: 10.2px;" y="0" x="0" id="text-entity-UserRoleBinding-7df93ccf-e87e-4b93-be54-036d05c157f1-attr-1-name" class="er entityLabel">id</text><rect height="22" width="51.39453125" y="46" x="0" class="er attributeBoxEven"></rect><text transform="translate(5,57)" style="dominant-baseline: middle; font-size: 10.2px;" y="0" x="0" id="text-entity-UserRoleBinding-7df93ccf-e87e-4b93-be54-036d05c157f1-attr-2-type" class="er entityLabel">uuid</text><rect height="22" width="64.93359375" y="46" x="51.39453125" class="er attributeBoxEven"></rect><text transform="translate(56.39453125,57)" style="dominant-baseline: middle; font-size: 10.2px;" y="0" x="0" id="text-entity-UserRoleBinding-7df93ccf-e87e-4b93-be54-036d05c157f1-attr-2-name" class="er entityLabel">user_id</text><rect height="22" width="51.39453125" y="68" x="0" class="er attributeBoxOdd"></rect><text transform="translate(5,79)" style="dominant-baseline: middle; font-size: 10.2px;" y="0" x="0" id="text-entity-UserRoleBinding-7df93ccf-e87e-4b93-be54-036d05c157f1-attr-3-type" class="er entityLabel">string</text><rect height="22" width="64.93359375" y="68" x="51.39453125" class="er attributeBoxOdd"></rect><text transform="translate(56.39453125,79)" style="dominant-baseline: middle; font-size: 10.2px;" y="0" x="0" id="text-entity-UserRoleBinding-7df93ccf-e87e-4b93-be54-036d05c157f1-attr-3-name" class="er entityLabel">role</text><rect height="22" width="51.39453125" y="90" x="0" class="er attributeBoxEven"></rect><text transform="translate(5,101)" style="dominant-baseline: middle; font-size: 10.2px;" y="0" x="0" id="text-entity-UserRoleBinding-7df93ccf-e87e-4b93-be54-036d05c157f1-attr-4-type" class="er entityLabel">string</text><rect height="22" width="64.93359375" y="90" x="51.39453125" class="er attributeBoxEven"></rect><text transform="translate(56.39453125,101)" style="dominant-baseline: middle; font-size: 10.2px;" y="0" x="0" id="text-entity-UserRoleBinding-7df93ccf-e87e-4b93-be54-036d05c157f1-attr-4-name" class="er entityLabel">scope</text><rect height="22" width="51.39453125" y="112" x="0" class="er attributeBoxOdd"></rect><text transform="translate(5,123)" style="dominant-baseline: middle; font-size: 10.2px;" y="0" x="0" id="text-entity-UserRoleBinding-7df93ccf-e87e-4b93-be54-036d05c157f1-attr-5-type" class="er entityLabel">uuid</text><rect height="22" width="64.93359375" y="112" x="51.39453125" class="er attributeBoxOdd"></rect><text transform="translate(56.39453125,123)" style="dominant-baseline: middle; font-size: 10.2px;" y="0" x="0" id="text-entity-UserRoleBinding-7df93ccf-e87e-4b93-be54-036d05c157f1-attr-5-name" class="er entityLabel">resource</text></g><g transform="translate(420,20 )" id="entity-Cluster-993b3511-d6a9-4b9e-8bf6-50b715e8359f"><rect height="112" width="133.0859375" y="0" x="0" class="er entityBox"></rect><text transform="translate(66.54296875,12)" style="dominant-baseline: middle; text-anchor: middle; font-size: 12px;" y="0" x="0" id="text-entity-Cluster-993b3511-d6a9-4b9e-8bf6-50b715e8359f" class="er entityLabel">Cluster</text><rect height="22" width="35.7421875" y="24" x="0" class="er attributeBoxOdd"></rect><text transform="translate(5,35)" style="dominant-baseline: middle; font-size: 10.2px;" y="0" x="0" id="text-entity-Cluster-993b3511-d6a9-4b9e-8bf6-50b715e8359f-attr-1-type" class="er entityLabel">uuid</text><rect height="22" width="97.34375" y="24" x="35.7421875" class="er attributeBoxOdd"></rect><text transform="translate(40.7421875,35)" style="dominant-baseline: middle; font-size: 10.2px;" y="0" x="0" id="text-entity-Cluster-993b3511-d6a9-4b9e-8bf6-50b715e8359f-attr-1-name" class="er entityLabel">id</text><rect height="22" width="35.7421875" y="46" x="0" class="er attributeBoxEven"></rect><text transform="translate(5,57)" style="dominant-baseline: middle; font-size: 10.2px;" y="0" x="0" id="text-entity-Cluster-993b3511-d6a9-4b9e-8bf6-50b715e8359f-attr-2-type" class="er entityLabel">string</text><rect height="22" width="97.34375" y="46" x="35.7421875" class="er attributeBoxEven"></rect><text transform="translate(40.7421875,57)" style="dominant-baseline: middle; font-size: 10.2px;" y="0" x="0" id="text-entity-Cluster-993b3511-d6a9-4b9e-8bf6-50b715e8359f-attr-2-name" class="er entityLabel">name</text><rect height="22" width="35.7421875" y="68" x="0" class="er attributeBoxOdd"></rect><text transform="translate(5,79)" style="dominant-baseline: middle; font-size: 10.2px;" y="0" x="0" id="text-entity-Cluster-993b3511-d6a9-4b9e-8bf6-50b715e8359f-attr-3-type" class="er entityLabel">string</text><rect height="22" width="97.34375" y="68" x="35.7421875" class="er attributeBoxOdd"></rect><text transform="translate(40.7421875,79)" style="dominant-baseline: middle; font-size: 10.2px;" y="0" x="0" id="text-entity-Cluster-993b3511-d6a9-4b9e-8bf6-50b715e8359f-attr-3-name" class="er entityLabel">api_server_address</text><rect height="22" width="35.7421875" y="90" x="0" class="er attributeBoxEven"></rect><text transform="translate(5,101)" style="dominant-baseline: middle; font-size: 10.2px;" y="0" x="0" id="text-entity-Cluster-993b3511-d6a9-4b9e-8bf6-50b715e8359f-attr-4-type" class="er entityLabel">bytes</text><rect height="22" width="97.34375" y="90" x="35.7421875" class="er attributeBoxEven"></rect><text transform="translate(40.7421875,101)" style="dominant-baseline: middle; font-size: 10.2px;" y="0" x="0" id="text-entity-Cluster-993b3511-d6a9-4b9e-8bf6-50b715e8359f-attr-4-name" class="er entityLabel">ca_cert_bundle</text></g><g transform="translate(220,31 )" id="entity-Tenant-e659dfbf-e153-444b-a12c-5dc294b1baa6"><rect height="90" width="100" y="0" x="0" class="er entityBox"></rect><text transform="translate(50,12)" style="dominant-baseline: middle; text-anchor: middle; font-size: 12px;" y="0" x="0" id="text-entity-Tenant-e659dfbf-e153-444b-a12c-5dc294b1baa6" class="er entityLabel">Tenant</text><rect height="22" width="49.37109375" y="24" x="0" class="er attributeBoxOdd"></rect><text transform="translate(5,35)" style="dominant-baseline: middle; font-size: 10.2px;" y="0" x="0" id="text-entity-Tenant-e659dfbf-e153-444b-a12c-5dc294b1baa6-attr-1-type" class="er entityLabel">uuid</text><rect height="22" width="50.62890625" y="24" x="49.37109375" class="er attributeBoxOdd"></rect><text transform="translate(54.37109375,35)" style="dominant-baseline: middle; font-size: 10.2px;" y="0" x="0" id="text-entity-Tenant-e659dfbf-e153-444b-a12c-5dc294b1baa6-attr-1-name" class="er entityLabel">id</text><rect height="22" width="49.37109375" y="46" x="0" class="er attributeBoxEven"></rect><text transform="translate(5,57)" style="dominant-baseline: middle; font-size: 10.2px;" y="0" x="0" id="text-entity-Tenant-e659dfbf-e153-444b-a12c-5dc294b1baa6-attr-2-type" class="er entityLabel">string</text><rect height="22" width="50.62890625" y="46" x="49.37109375" class="er attributeBoxEven"></rect><text transform="translate(54.37109375,57)" style="dominant-baseline: middle; font-size: 10.2px;" y="0" x="0" id="text-entity-Tenant-e659dfbf-e153-444b-a12c-5dc294b1baa6-attr-2-name" class="er entityLabel">name</text><rect height="22" width="49.37109375" y="68" x="0" class="er attributeBoxOdd"></rect><text transform="translate(5,79)" style="dominant-baseline: middle; font-size: 10.2px;" y="0" x="0" id="text-entity-Tenant-e659dfbf-e153-444b-a12c-5dc294b1baa6-attr-3-type" class="er entityLabel">string</text><rect height="22" width="50.62890625" y="68" x="49.37109375" class="er attributeBoxOdd"></rect><text transform="translate(54.37109375,79)" style="dominant-baseline: middle; font-size: 10.2px;" y="0" x="0" id="text-entity-Tenant-e659dfbf-e153-444b-a12c-5dc294b1baa6-attr-3-name" class="er entityLabel">prefix</text></g><g transform="translate(364.66796875,254 )" id="entity-TenantClusterBinding-3ebc08e4-5c7a-458f-b527-6fe61a029489"><rect height="90" width="143.75" y="0" x="0" class="er entityBox"></rect><text transform="translate(71.875,12)" style="dominant-baseline: middle; text-anchor: middle; font-size: 12px;" y="0" x="0" id="text-entity-TenantClusterBinding-3ebc08e4-5c7a-458f-b527-6fe61a029489" class="er entityLabel">TenantClusterBinding</text><rect height="22" width="59.109375" y="24" x="0" class="er attributeBoxOdd"></rect><text transform="translate(5,35)" style="dominant-baseline: middle; font-size: 10.2px;" y="0" x="0" id="text-entity-TenantClusterBinding-3ebc08e4-5c7a-458f-b527-6fe61a029489-attr-1-type" class="er entityLabel">uuid</text><rect height="22" width="84.640625" y="24" x="59.109375" class="er attributeBoxOdd"></rect><text transform="translate(64.109375,35)" style="dominant-baseline: middle; font-size: 10.2px;" y="0" x="0" id="text-entity-TenantClusterBinding-3ebc08e4-5c7a-458f-b527-6fe61a029489-attr-1-name" class="er entityLabel">id</text><rect height="22" width="59.109375" y="46" x="0" class="er attributeBoxEven"></rect><text transform="translate(5,57)" style="dominant-baseline: middle; font-size: 10.2px;" y="0" x="0" id="text-entity-TenantClusterBinding-3ebc08e4-5c7a-458f-b527-6fe61a029489-attr-2-type" class="er entityLabel">uuid</text><rect height="22" width="84.640625" y="46" x="59.109375" class="er attributeBoxEven"></rect><text transform="translate(64.109375,57)" style="dominant-baseline: middle; font-size: 10.2px;" y="0" x="0" id="text-entity-TenantClusterBinding-3ebc08e4-5c7a-458f-b527-6fe61a029489-attr-2-name" class="er entityLabel">cluster_id</text><rect height="22" width="59.109375" y="68" x="0" class="er attributeBoxOdd"></rect><text transform="translate(5,79)" style="dominant-baseline: middle; font-size: 10.2px;" y="0" x="0" id="text-entity-TenantClusterBinding-3ebc08e4-5c7a-458f-b527-6fe61a029489-attr-3-type" class="er entityLabel">uuid</text><rect height="22" width="84.640625" y="68" x="59.109375" class="er attributeBoxOdd"></rect><text transform="translate(64.109375,79)" style="dominant-baseline: middle; font-size: 10.2px;" y="0" x="0" id="text-entity-TenantClusterBinding-3ebc08e4-5c7a-458f-b527-6fe61a029489-attr-3-name" class="er entityLabel">tenant_id</text></g><rect height="14" width="39.638671875" y="170.98155212402344" x="53.339027404785156" class="er relationshipLabelBox"></rect><text style="text-anchor: middle; dominant-baseline: middle; font-size: 12px;" y="177.98155212402344" x="73.15836334228516" id="rel25" class="er relationshipLabel">part_of</text><rect height="14" width="39.638671875" y="172.69676208496094" x="198.1556854248047" class="er relationshipLabelBox"></rect><text style="text-anchor: middle; dominant-baseline: middle; font-size: 12px;" y="179.69676208496094" x="217.9750213623047" id="rel26" class="er relationshipLabel">part_of</text><rect height="14" width="39.638671875" y="184.36349487304688" x="319.7874755859375" class="er relationshipLabelBox"></rect><text style="text-anchor: middle; dominant-baseline: middle; font-size: 12px;" y="191.36349487304688" x="339.6068115234375" id="rel27" class="er relationshipLabel">part_of</text><rect height="14" width="39.638671875" y="187.8035430908203" x="459.0389709472656" class="er relationshipLabelBox"></rect><text style="text-anchor: middle; dominant-baseline: middle; font-size: 12px;" y="194.8035430908203" x="478.8583068847656" id="rel28" class="er relationshipLabel">part_of</text></svg>